<?xml version="1.0" encoding="UTF-8"?>
<svg width="50px" height="52px" viewBox="0 0 50 52" version="1.1" xmlns="http://www.w3.org/2000/svg" xmlns:xlink="http://www.w3.org/1999/xlink">
    <title>Page 1</title>
    <g id="Symbols" stroke="none" stroke-width="1" fill="none" fill-rule="evenodd">
        <g id="Menu" transform="translate(-1132.000000, -14.000000)">
            <g id="Page-1" transform="translate(1132.000000, 14.000000)">
                <g id="Group-5">
                    <path d="M1.11320263,17.27596 C1.30146579,21.25656 2.53807105,29.69096 3.61993947,34.58286 C4.56254474,38.84816 4.33043947,49.20006 4.33043947,49.20006 C5.07575526,50.47276 21.3708342,51.31256 25.8169395,50.43896 C30.1560184,49.58616 42.7889921,51.57776 44.2976763,50.25046 C44.2976763,50.25046 47.32665,37.94856 47.2209132,33.57276 C47.1267816,29.68836 48.8237289,18.22366 48.8237289,18.22366 C45.4298342,17.46576 28.0799658,18.41216 23.7421763,17.84406 C16.7661237,17.08616 7.33749211,19.35986 1.11320263,17.27596" id="Stroke-1" stroke="#1F2548" stroke-width="0.975" stroke-linecap="round" stroke-linejoin="round"></path>
                    <path d="M10.5708474,17.95638 C11.2362158,15.94528 11.7171895,12.40278 12.9499263,10.58278 C14.4702158,8.18948 15.6578211,6.13158 17.2735316,3.73698 C20.5952158,-0.95602 26.8672158,-0.71812 31.4267947,1.96508 C34.8477684,3.97618 36.1746368,5.21638 37.0308474,9.04618 C37.5053737,11.63188 39.3570579,15.17048 39.8341632,17.75488 C38.9792421,17.65868 36.2971368,17.71458 35.4422158,17.80818 C34.3951632,13.40248 33.8961368,8.09328 31.0476895,4.55078 C27.6267158,0.43238 24.6351368,-0.95472 20.4546632,3.06748 C18.5565579,4.98238 17.5572158,6.56318 16.8931368,9.14758 C16.2277684,11.92438 15.6114,15.08468 16.8402684,17.61058 C14.1865316,17.90958 13.0982158,18.17348 10.5708474,17.95638" id="Fill-3" fill="#1F2548"></path>
                </g>
                <g id="Group-10" transform="translate(14.184211, 24.700000)" fill="#1F2548">
                    <path d="M12.6429026,17.32471 L12.6429026,17.32471 C12.5951921,17.32471 12.5423237,17.32081 12.4752711,17.31691 C12.3579289,17.30911 12.1980342,17.29871 11.9504553,17.29871 C11.4694816,17.29871 11.2747711,17.15831 11.1316395,17.02701 C11.1174553,17.01401 11.1045605,17.00361 11.0955342,16.99581 L10.8724553,16.82031 C10.3682711,16.42381 9.84732368,16.01431 9.33927105,15.60481 C9.20774474,15.49951 9.03237632,15.32531 9.02592895,15.03671 C9.02592895,15.03671 9.02592895,15.03541 9.02592895,15.03541 C9.01948158,14.49591 9.06590263,13.93431 9.16777105,13.31681 C9.21290263,13.03471 9.36506053,12.87221 9.64745526,12.80721 C9.81766579,12.76951 9.98142895,12.76431 10.1322974,12.76431 C10.1709816,12.76431 10.2096658,12.76431 10.24835,12.76431 C10.2844553,12.76431 10.32185,12.76561 10.3592447,12.76561 C10.4327447,12.76561 10.4894816,12.76431 10.54235,12.76041 C10.6274553,12.75521 10.7035342,12.75001 10.7718763,12.74611 C11.0994026,12.72531 11.2360868,12.71621 11.3431132,12.71621 C11.42435,12.71621 11.4836658,12.72141 11.5842447,12.72921 C11.6912711,12.73831 11.8550342,12.75131 12.1567711,12.76691 C12.8634026,12.80201 13.5687447,12.88911 14.2508763,12.97491 C14.4365605,12.99701 14.6003237,13.02561 14.7125079,13.13741 C14.82985,13.25441 14.8517711,13.42341 14.8659553,13.60151 C14.8891658,13.88361 14.87885,14.08901 14.8698237,14.28921 C14.8620868,14.48031 14.8530605,14.66101 14.8724026,14.90801 C14.9007711,15.25511 14.5900079,15.58531 14.4043237,15.78291 L14.3824026,15.80631 C14.2792447,15.91681 14.1722184,16.03641 14.0600342,16.16251 C13.7492711,16.51221 13.3972447,16.90871 13.0207184,17.18561 C12.8930605,17.27921 12.8040868,17.32471 12.6429026,17.32471 M9.37021842,15.03021 C9.37408684,15.14201 9.42695526,15.23041 9.55461316,15.33311 C10.0600868,15.74131 10.5810342,16.15081 11.0839289,16.54731 L11.3082974,16.72281 C11.32635,16.73711 11.3444026,16.75401 11.3624553,16.76961 C11.4462711,16.84631 11.5610342,16.95161 11.9504553,16.95161 C12.20835,16.95161 12.3759816,16.96201 12.4984816,16.96981 C12.5590868,16.97371 12.6067974,16.97761 12.6429026,16.97761 C12.7035079,16.97761 12.7241395,16.97501 12.8169816,16.90611 C13.1651395,16.65001 13.4900868,16.28471 13.8034289,15.93111 C13.9181921,15.80241 14.0252184,15.68151 14.1322447,15.56711 L14.1541658,15.54371 C14.2818237,15.40851 14.5448763,15.12901 14.5294026,14.93531 C14.5087711,14.66751 14.5177974,14.46731 14.5268237,14.27361 C14.5345605,14.07601 14.5435868,13.88881 14.5229553,13.62881 C14.5177974,13.57161 14.5061921,13.41951 14.4700868,13.38441 C14.4326921,13.34671 14.2766658,13.32721 14.2096132,13.31941 C13.5326395,13.23491 12.8337447,13.14781 12.1400079,13.11401 C11.8331132,13.09841 11.6667711,13.08411 11.5558763,13.07631 C11.4617447,13.06851 11.4101658,13.06461 11.3431132,13.06461 C11.2464026,13.06461 11.1135868,13.07241 10.7937974,13.09321 C10.7254553,13.09711 10.6493763,13.10231 10.5629816,13.10751 C10.5036658,13.11141 10.4391921,13.11271 10.3592447,13.11271 C10.3205605,13.11271 10.2831658,13.11271 10.2444816,13.11141 C10.2070868,13.11141 10.1696921,13.11141 10.1322974,13.11141 C10.0007711,13.11141 9.86021842,13.11531 9.72224474,13.14651 C9.56363947,13.18291 9.52882368,13.24271 9.50819211,13.37271 C9.50819211,13.37271 9.50819211,13.37271 9.50819211,13.37401 C9.41019211,13.96941 9.36506053,14.51151 9.37021842,15.03021" id="Fill-6"></path>
                    <path d="M22.3641158,12.38055 C22.3576684,12.30385 22.3499316,12.20895 22.3409053,12.09065 C22.3409053,12.08935 22.3396158,12.08805 22.3396158,12.08675 C22.3396158,12.08545 22.3396158,12.08545 22.3396158,12.08415 C22.1216947,10.18485 21.8405895,8.44545 21.5066158,6.91145 C21.1739316,5.38915 20.9031421,4.59615 20.8025632,4.32575 C20.8012737,4.32445 20.8012737,4.32315 20.7999842,4.32055 C20.7999842,4.32055 20.7999842,4.31925 20.7999842,4.31925 C20.8012737,4.31665 20.8051421,4.30755 20.8219053,4.29325 C20.9740632,4.16195 21.1107474,4.01375 21.2435632,3.87075 C21.3144842,3.79405 21.3879842,3.71345 21.4614842,3.63935 C21.4614842,3.63935 21.4614842,3.63935 21.4627737,3.63805 C21.7567737,3.33645 21.9076421,2.94645 21.9102211,2.47975 L21.9102211,2.47845 C21.9102211,2.18075 21.8934579,1.86875 21.6858526,1.60875 C21.5001684,1.37735 21.2384053,1.19925 20.8850895,1.06405 C20.5524053,0.93405 20.2480895,0.98475 19.9540895,1.22005 C19.9540895,1.22005 19.9540895,1.22135 19.9540895,1.22135 C19.8431947,1.31105 19.7503526,1.41505 19.6613789,1.51515 C19.6033526,1.58015 19.5479053,1.64385 19.4885895,1.70235 C19.4150895,1.66855 19.3480368,1.65165 19.2848526,1.63475 C19.2732474,1.63085 19.2603526,1.62825 19.2487474,1.62435 C19.0372737,1.56715 18.4995632,1.42935 18.0611421,1.39425 C17.9515368,1.38515 17.8445105,1.37605 17.7374842,1.36695 C16.9702474,1.29935 16.2455632,1.23695 15.4422211,1.26425 C14.7833,1.24085 12.7962211,1.22265 11.1985632,1.20705 C10.2791684,1.19925 9.48614211,1.19145 9.11735263,1.18495 C8.4868,1.17455 7.84593158,1.15505 7.22569474,1.13685 C6.88011579,1.12645 6.52293158,1.11605 6.17219474,1.10695 C6.07419474,1.10435 5.97619474,1.10175 5.87819474,1.09915 C5.42301053,1.08485 4.95106316,1.07055 4.48814211,1.07835 C4.15287895,1.08355 3.98911579,0.95745 3.78666842,0.70655 C3.52103684,0.37505 3.21027368,0.38805 2.94077368,0.44265 C2.64419474,0.50375 2.3863,0.63505 2.15161579,0.84305 C1.94014211,1.03155 1.77251053,1.25905 1.61777368,1.47485 C1.45916842,1.69715 1.39340526,1.91815 1.41661579,2.15085 C1.43595789,2.33935 1.51461579,2.53565 1.66290526,2.76835 C1.66290526,2.76835 1.66290526,2.76835 1.66290526,2.76835 C1.83956316,3.03875 2.07424737,3.25065 2.30119474,3.45475 C2.38501053,3.53015 2.46624737,3.60295 2.54232632,3.67705 C2.51395789,3.78625 2.4843,3.89545 2.45593158,4.00335 C2.37211579,4.32185 2.28443158,4.65075 2.21737895,4.98225 C2.17353684,5.20715 2.12324737,5.43465 2.07424737,5.65435 C2.01235263,5.93125 1.95045789,6.21595 1.8963,6.50065 C1.7983,6.83215 1.43982632,8.74185 1.09940526,10.57095 C1.05169474,10.82835 1.01687895,11.01425 1.00269474,11.08965 C0.917589474,11.53685 0.828615789,12.06855 0.825947993,12.61845 C0.820878947,13.23205 1.04008947,13.64025 1.53653684,13.94055 C2.46108947,14.49955 3.81116842,15.17555 4.54487895,15.44725 C5.18832632,15.68255 6.02003684,15.96335 6.82724737,16.21815 C7.65766842,16.47945 8.33335263,16.67185 8.68151053,16.74465 C8.69311579,16.74725 8.70472105,16.74855 8.71632632,16.74855 C8.73824737,16.74855 8.75887895,16.74335 8.77822105,16.73555 C8.8298,16.80965 8.88266842,16.87985 8.93811579,16.94875 C8.93811579,16.95005 8.93940526,16.95135 8.94069474,16.95265 C8.99614211,17.01765 9.4913,17.58315 9.78272105,17.77945 C9.85235263,17.84185 9.95551053,17.89385 10.0560895,17.94325 C10.0870368,17.95755 10.1154053,17.97185 10.1411947,17.98615 C10.5564053,18.20715 10.9290632,18.31115 11.3030105,18.31115 C11.3416947,18.31115 11.3803789,18.31115 11.4203526,18.30855 C11.4203526,18.30855 11.4216421,18.30855 11.4216421,18.30855 C11.4216421,18.30855 11.4216421,18.30855 11.4229316,18.30855 C11.5144842,18.30075 11.7556158,18.30465 11.9890105,18.30855 C12.1463263,18.31115 12.2997737,18.31375 12.4261421,18.31375 C12.5460632,18.31375 12.6414842,18.31245 12.6995105,18.30595 C12.7755895,18.29685 12.8697211,18.29945 12.9522474,18.30205 L12.9535368,18.30205 C13.4216158,18.30855 13.8716421,18.27345 14.3281158,18.19545 C14.5769842,18.15385 14.7768526,18.03945 14.9380368,17.84835 C15.2836158,17.43625 15.5466684,17.03845 15.8458263,16.47555 L15.9206158,16.34295 C15.9322211,16.34555 15.9425368,16.34555 15.9541421,16.34555 C15.9747737,16.34555 15.9966947,16.34295 16.0160368,16.33385 L16.8993263,15.98675 C16.9031947,15.98545 16.9057737,15.98415 16.9083526,15.98285 C17.2539316,15.82425 17.5801684,15.69165 17.9566947,15.53695 C18.3358,15.38225 18.7651947,15.20545 19.3016158,14.96885 C20.0920632,14.61915 20.8464053,14.18885 21.5762474,13.77285 L21.7168,13.69225 C21.9218263,13.57655 22.2738526,13.33605 22.3370368,13.03965 C22.3370368,13.03965 22.3370368,13.03965 22.3370368,13.03835 C22.3963526,12.75495 22.3937737,12.72635 22.3641158,12.38055 M15.8097211,16.06085 L15.6395105,16.35855 C15.6395105,16.35985 15.6382211,16.36115 15.6382211,16.36245 C15.3480895,16.90975 15.0927737,17.29585 14.7575105,17.69495 C14.6324316,17.84315 14.4841421,17.92765 14.2894316,17.96145 C13.8458526,18.03685 13.4100105,18.07065 12.9574053,18.06415 C12.8671421,18.06155 12.7652737,18.05895 12.6737211,18.06935 C12.5692737,18.08105 12.2636684,18.07585 11.9928789,18.07195 C11.7440105,18.06675 11.5106158,18.06415 11.4061684,18.07065 L11.4061684,18.07065 C11.0373789,18.09275 10.6698789,17.99915 10.2508,17.77555 C10.2211421,17.75995 10.1901947,17.74435 10.1605368,17.73005 C10.0754316,17.68715 9.98001053,17.64035 9.93874737,17.60005 C9.93358947,17.59485 9.92714211,17.58965 9.92069474,17.58575 C9.70664211,17.44535 9.31722105,17.02545 9.11993158,16.79795 C8.67119474,16.23505 8.32948421,15.47195 8.11027368,14.94675 C7.96327368,14.60095 7.92587895,14.21095 8.00066842,13.81965 C8.09737895,13.32695 8.23793158,12.83295 8.37461579,12.35585 C8.43393158,12.14915 8.49582632,11.93595 8.55256316,11.72405 C8.60027368,11.54855 8.64798421,11.37435 8.69440526,11.19885 C8.83366842,10.68275 8.97808947,10.14975 9.12251053,9.62585 C9.15345789,9.51535 9.18182632,9.40485 9.21019474,9.29695 C9.37911579,8.65605 9.53901053,8.05155 9.9568,7.53805 C10.1682737,7.27935 10.3629842,7.16495 10.6079842,7.15455 C10.7614316,7.14675 10.9187474,7.13765 11.0696158,7.12985 C11.7710895,7.08955 12.4983526,7.04795 13.2075632,7.17015 C13.2707474,7.18185 13.3339316,7.19095 13.3958263,7.20005 C13.6511421,7.23775 13.8935632,7.27415 14.1127737,7.42235 C14.2945895,7.54585 14.4106421,7.73955 14.5318526,7.94365 C14.5537737,7.98005 14.5769842,8.01645 14.5989053,8.05285 C14.6401684,8.13085 14.7716947,8.56375 14.9225632,9.16175 C15.0038,9.48415 15.0837474,9.81305 15.1611158,10.13155 C15.3029579,10.70745 15.4473789,11.30415 15.6034053,11.88655 C15.6704579,12.13745 15.7452474,12.38965 15.8187474,12.63275 C15.9954053,13.22035 16.1772211,13.82745 16.2404053,14.45535 C16.2881158,14.94025 16.0495632,15.60195 15.8097211,16.06085 M22.0004842,12.96685 C21.9759842,13.08125 21.7980368,13.24765 21.5478789,13.39065 L21.4073263,13.46995 C20.6852211,13.88205 19.9373263,14.30715 19.1636421,14.65035 C18.6310895,14.88565 18.2042737,15.06115 17.8264579,15.21585 C17.4486421,15.37055 17.1211158,15.50445 16.7703789,15.66435 L16.1449842,15.91135 C16.2300895,15.72025 16.3035895,15.52395 16.3577474,15.33805 C16.4609053,14.99095 16.4995895,14.68545 16.4750895,14.43195 C16.4093263,13.78065 16.2236421,13.16185 16.0444053,12.56385 C15.9721947,12.32335 15.8974053,12.07245 15.8316421,11.82545 C15.6769053,11.24435 15.5311947,10.65025 15.3906421,10.07435 C15.3132737,9.75585 15.2320368,9.42695 15.1508,9.10325 C15.0927737,8.87185 15.0012211,8.52345 14.9212737,8.26345 L14.9212737,8.26345 C14.9212737,8.26345 14.9264316,8.21145 14.9934842,8.10355 C15.0605368,7.99435 15.1701421,7.86565 15.1701421,7.86565 C15.1701421,7.86565 15.2449316,8.02945 15.3854842,8.12305 C15.5247474,8.21665 15.6730368,8.25955 15.8767737,8.22055 C16.0818,8.18155 16.1772211,8.02945 16.2055895,7.88125 C16.2339579,7.73435 16.1939842,7.40285 16.0869579,7.31835 C15.7800632,7.04145 15.5170105,7.11685 15.3738789,7.20005 C15.2294579,7.28325 15.1288789,7.48345 15.1159842,7.60305 C15.1018,7.72265 15.1005105,7.72785 15.0386158,7.80975 C14.9754316,7.89165 14.8490632,8.04375 14.8490632,8.04375 L14.8490632,8.04375 C14.8323,7.99565 14.8168263,7.95925 14.8039316,7.93585 C14.8039316,7.93585 14.8026421,7.93455 14.8026421,7.93325 C14.8026421,7.93325 14.8013526,7.93195 14.8013526,7.93195 C14.7794316,7.89555 14.7562211,7.85785 14.7343,7.82015 C14.6040632,7.60305 14.4699579,7.37815 14.2443,7.22605 C13.9812474,7.04665 13.7001421,7.00505 13.4293526,6.96475 C13.3700368,6.95565 13.3081421,6.94655 13.2475368,6.93615 C12.5112474,6.80875 11.7710895,6.85165 11.0554316,6.89195 C10.9058526,6.90105 10.7498263,6.91015 10.5976684,6.91665 C10.2843263,6.93095 10.0303,7.07525 9.77498421,7.38725 C9.69116842,7.48995 9.61637895,7.59525 9.55061579,7.70445 L9.55061579,7.70445 C9.55061579,7.70445 9.52224737,7.67585 9.42295789,7.62255 C9.32237895,7.56925 9.23598421,7.53545 9.22953684,7.45095 C9.22308947,7.36515 9.21922105,7.27935 9.13411579,7.19355 C9.04901053,7.10775 8.91361579,7.02975 8.74340526,7.00895 C8.57448421,6.98815 8.43264211,7.03235 8.35785263,7.07135 C8.28435263,7.10905 8.19537895,7.19095 8.15411579,7.28455 C8.11156316,7.37815 8.05095789,7.59395 8.14508947,7.83055 C8.14508947,7.83055 8.21601053,8.02945 8.50485263,8.07495 C8.79369474,8.11915 9.03740526,7.97875 9.09027368,7.92155 C9.14314211,7.86305 9.21793158,7.78245 9.22051053,7.64855 C9.22051053,7.64855 9.31593158,7.66025 9.48872105,7.81105 L9.48872105,7.81105 C9.23985263,8.26085392 9.10961579,8.75485 8.98324737,9.23585 C8.95487895,9.34245 8.92522105,9.45295 8.89556316,9.56215 C8.74985263,10.08605 8.60672105,10.62035 8.46745789,11.13645 C8.41974737,11.31195 8.37332632,11.48615 8.32561579,11.66165 C8.26887895,11.87095 8.20827368,12.08415 8.14895789,12.29085 C8.01098421,12.77185 7.86785263,13.27105 7.76856316,13.77415 C7.68474737,14.21225 7.72858947,14.65035 7.89364211,15.03905 C8.04708947,15.40955 8.26243158,15.89575 8.53322105,16.35335 C7.69893158,16.14405 5.91043158,15.57725 4.66351053,15.12095 C4.03811579,14.88955 2.73316842,14.25905 1.71319474,13.64285 C1.32377368,13.40625 1.16645789,13.11115 1.17025681,12.61975 C1.17290526,12.09975 1.25801053,11.58755 1.34182632,11.15595 C1.35601053,11.07925 1.39082632,10.89335 1.43853684,10.63465 C1.64485263,9.52185 2.12840526,6.91535 2.22898421,6.59425 C2.22898421,6.59425 2.22898421,6.59295 2.22898421,6.59295 C2.23027368,6.58905 2.23156316,6.58515 2.23156316,6.58255 C2.23285263,6.57995 2.23285263,6.57735 2.23285263,6.57605 C2.23414211,6.57475 2.23414211,6.57475 2.23414211,6.57475 C2.28572105,6.29265 2.34890526,6.00665 2.4108,5.72975 C2.4598,5.50875 2.51008947,5.27865 2.55522105,5.05115 C2.61969474,4.73135 2.70608947,4.40635 2.78990526,4.09305 C2.82601053,3.95265 2.86469474,3.80835 2.9008,3.66665 C2.9008,3.66535 2.9008,3.66405 2.9008,3.66275 C2.90208947,3.65885 2.90208947,3.65625 2.90337895,3.65235 C2.90337895,3.64975 2.90466842,3.64715 2.90466842,3.64455 C2.90466842,3.64195 2.90466842,3.63935 2.90466842,3.63675 C2.90595789,3.63415 2.90595789,3.63025 2.90595789,3.62765 C2.90595789,3.62505 2.90595789,3.62245 2.90595789,3.61985 C2.90595789,3.61725 2.90595789,3.61335 2.90595789,3.61075 C2.90466842,3.60815 2.90466842,3.60555 2.90466842,3.60295 C2.90466842,3.60035 2.90337895,3.59775 2.90337895,3.59385 C2.90337895,3.59125 2.90208947,3.58865 2.90208947,3.58605 C2.9008,3.58345 2.9008,3.58085 2.89951053,3.57825 C2.89951053,3.57565 2.89822105,3.57175 2.89693158,3.56915 C2.89693158,3.56655 2.89564211,3.56525 2.89435263,3.56265 C2.89435263,3.56005 2.89306316,3.55615 2.89177368,3.55355 C2.89048421,3.55095 2.88919474,3.54965 2.88790526,3.54705 C2.88661579,3.54445 2.88532632,3.54185 2.88403684,3.53795 C2.88274737,3.53665 2.88145789,3.53405 2.88016842,3.53275 C2.87887895,3.53015 2.8763,3.52755 2.87501053,3.52495 C2.87372105,3.52235 2.87243158,3.51975 2.86985263,3.51845 C2.86856316,3.51585 2.86727368,3.51325 2.86469474,3.51195 C2.86340526,3.50935 2.86082632,3.50675 2.85824737,3.50415 C2.85824737,3.50285 2.85695789,3.50285 2.85695789,3.50155 C2.75251053,3.39495 2.63903684,3.29355 2.53072105,3.19605 C2.31022105,2.99845 2.10261579,2.81125 1.95174737,2.57855 C1.83440526,2.39395 1.77251053,2.24705 1.75961579,2.11575 C1.74543158,1.96885 1.78927368,1.82975 1.89758947,1.67765 C2.21222105,1.23565 2.49461579,0.88985 3.00911579,0.78325 C3.26314211,0.73125 3.39208947,0.76635 3.51974737,0.92495 C3.76603684,1.23045 4.02651053,1.43325 4.49458947,1.42545 C4.94848421,1.41765 5.41656316,1.43195 5.86787895,1.44625 C5.96587895,1.44885 6.06516842,1.45145 6.16316842,1.45535 C6.51390526,1.46315 6.8698,1.47485 7.21537895,1.48395 C7.83690526,1.50345 8.47906316,1.52165 9.11219474,1.53205 C9.48098421,1.53855 10.2753,1.54635 11.1946947,1.55415 C12.7962211,1.56975 14.7871684,1.58795 15.4357737,1.61135 C15.4383526,1.61135 15.4409316,1.61135 15.4422211,1.61135 C15.4448,1.61135 15.4460895,1.61135 15.4486684,1.61135 C16.2326684,1.58405 16.9496158,1.64645 17.7078263,1.71275 C17.8148526,1.72185 17.9231684,1.73095 18.0327737,1.74005 C18.0327737,1.74005 18.0340632,1.74005 18.0340632,1.74005 C18.4441158,1.77255 18.9560368,1.90515 19.1584842,1.95975 C19.1713789,1.96365 19.1842737,1.96755 19.1971684,1.97015 C19.2771158,1.99225 19.3454579,2.01045 19.4163789,2.05725 C19.4795632,2.10015 19.5620895,2.09495 19.6214053,2.04685 C19.7348789,1.95325 19.8290105,1.84795 19.9192737,1.74655 C20.0018,1.65295 20.0804579,1.56455 20.1694316,1.49175 C20.3667211,1.33445 20.5433789,1.30325 20.7613,1.38905 C20.7613,1.38905 20.7613,1.38905 20.7625895,1.38905 C21.0617474,1.50345 21.2693526,1.64255 21.4176421,1.82585 C21.5543263,1.99875 21.5659316,2.23275 21.5659316,2.47845 C21.5633526,2.85675 21.4498789,3.15575 21.2164842,3.39495 C21.1391158,3.47295 21.0643263,3.55485 20.9908263,3.63415 C20.8593,3.77585 20.7355105,3.91105 20.5962474,4.02935 C20.5962474,4.03065 20.5962474,4.03065 20.5949579,4.03065 C20.4647211,4.14635 20.4221684,4.30235 20.4801947,4.44925 C20.5575632,4.65725 20.8348,5.44765 21.1700632,6.98555 C21.5014579,8.50785 21.7799842,10.23425 21.9966158,12.12055 C22.0069316,12.23885 22.0146684,12.33375 22.0211158,12.41045 C22.0481947,12.73285 22.0481947,12.73415 22.0004842,12.96685" id="Fill-8"></path>
                </g>
            </g>
        </g>
    </g>
</svg>