<svg viewBox="0 0 313.87 258.84" xmlns="http://www.w3.org/2000/svg"><path d="m29.64 47.54s-9.54 43.46-13.11 61.65-10.34 47-10.84 57.52-1.76 16.89 5 23.12 34.86 20.24 50.46 25.37 32.06 11.25 56.67 17.72c0 0 9.14 14 21.43 18.88s40.56 4 49.31 2.76 12.85 0 20-11.6 9.31-15.47 9.31-15.47 14.77-4.57 40.41-16.81 46.72-23.08 48.66-26.19 4.05-7.73 2.61-15.43-7.44-49.59-9.39-59.34-7.3-35.81-13.35-52.54a70.4 70.4 0 0 0 13-15c6.14-9.49 3.18-19.27.27-22.15s-8.46-9-15.24-7.78-13.3 10-13.3 10-12.48-5-39.59-5.66-41.51-.93-67.45-1.18-80.76-2.46-97.63-1.9-16.66-.56-18.07-1.39-5.37-6.66-10.22-8.2-7.71-1.24-15.77 6-10.35 12.08-9.19 16.08 1.28 8.24 16.02 21.54z" fill="#fff"/><g fill="#202347"><path d="m173.74 239.38c-.71 0-1.48 0-2.38-.11-1.55-.1-3.69-.23-7-.23-7.67 0-10.59-2.65-12.16-4.07l-.38-.33-3.18-2.48c-6.75-5.27-13.73-10.72-20.53-16.15a11.64 11.64 0 0 1 -4.85-8.87 130.32 130.32 0 0 1 1.94-23.33c.71-4.46 3.24-7.14 7.73-8.16a35.53 35.53 0 0 1 8.51-.62c1.34 0 2.61 0 3.83-.05 3.2-.2 8-.09 12.56 0 3.69.09 7.18.18 9 .07 7.27-.45 14.43.65 21.35 1.71 2.46.38 5 .77 7.47 1.07 6.92.84 9.21 3.16 9.75 9.91a67.73 67.73 0 0 1 .06 9.41 60.7 60.7 0 0 0 0 8.08c.44 5.39-4.25 10.33-6.77 13l-.29.31c-1.39 1.46-2.81 3-4.32 4.73-4.24 4.74-9.06 10.11-14.28 13.92a9 9 0 0 1 -6.06 2.19zm-33.86-56.38a23.6 23.6 0 0 0 -5.17.43c-1.39.32-1.42.52-1.6 1.65a122.38 122.38 0 0 0 -1.83 21.9c0 .81.32 1.55 1.84 2.76 6.77 5.41 13.73 10.84 20.46 16.09l3.18 2.48c.25.2.53.44.82.71 1 .89 2.21 2 6.8 2 3.55 0 5.93.15 7.5.25a16.39 16.39 0 0 0 2.26.07 4.72 4.72 0 0 0 1-.61c4.55-3.32 8.87-8.15 13-12.81 1.54-1.72 3-3.35 4.45-4.89l.31-.32c1.17-1.24 4.75-5 4.6-6.85a67.41 67.41 0 0 1 -.05-9.07 60.67 60.67 0 0 0 0-8.4 13.42 13.42 0 0 0 -.3-2.19 15.72 15.72 0 0 0 -2.45-.42c-2.6-.33-5.2-.72-7.71-1.11-6.81-1-13.23-2-19.65-1.64-2.13.13-5.61 0-9.64-.05-4.23-.1-9-.22-11.87 0-1.51.09-3 .08-4.41.07z"/><path d="m313.58 178.32c-.07-.85-.16-1.85-.25-3v-.12c-6.83-62.51-16.49-101.47-21.65-116.3a1.83 1.83 0 0 1 .51-2c1.72-1.6 3.29-3.29 4.82-4.93 1.06-1.15 2.07-2.22 3.13-3.29 4.54-4.61 6.86-10.54 6.9-17.66 0-3.34 0-8.94-3.58-13.39-2.84-3.52-6.83-6.22-12.15-8.23s-10.3-1.24-15 2.46a38.53 38.53 0 0 0 -4.31 4.41l-.87 1a2 2 0 0 1 -2 .55l-1-.27-.52-.14a106.46 106.46 0 0 0 -17.45-3.41l-4.62-.4c-11.11-1-21.61-1.86-33.27-1.47-9.59-.33-38.21-.6-61.23-.81-13.22-.12-24.64-.23-29.94-.32-9.09-.15-18.34-.42-27.28-.68q-7.59-.22-15.17-.43l-4.26-.12c-6.58-.16-13.39-.37-20.09-.26-4.23.08-6.2-1.41-8.91-4.75-4.39-5.4-9.62-5.13-13.7-4.3-9.7 2-15 8.4-20 15.35-5.82 8-2.74 15 .61 20.23 2.64 4 6.1 7.12 9.45 10.11.69.61 1.37 1.21 2 1.81a1.74 1.74 0 0 1 .5 1.74c-.24.93-.49 1.86-.74 2.78-1.22 4.58-2.48 9.31-3.46 14.08-.6 3.19-1.32 6.44-2.05 9.58-.88 3.94-1.79 8-2.55 12.09-1.45 5.04-6.35 30.89-11.45 58.17-.7 3.73-1.21 6.44-1.41 7.52a119.76 119.76 0 0 0 -2.59 22.14c-.08 9.25 3.41 15.68 11 20.23 13.39 8 33 17.76 43.64 21.67 17.94 6.52 48.64 16.27 59.84 18.61l1.53.33c.47.63 1 1.27 1.46 1.91l.09.11c.81.93 8 9 12.32 12a19.26 19.26 0 0 0 4.12 2.48c.42.2.83.4 1.19.59 6.18 3.27 11.74 4.81 17.34 4.81.6 0 1.19 0 1.79-.05h.05c1.26-.09 4.7 0 8 0 2.53 0 4.67.08 6.39.08s6.3-.21 7.54-.18a109.2 109.2 0 0 0 20.07-1.54 15.4 15.4 0 0 0 9.56-5.4 99.78 99.78 0 0 0 10.33-14.64 32.74 32.74 0 0 0 5.24-2c4.67-2.12 12.07-4.84 19.91-7.72 8.87-3.26 18.91-7 27.06-10.53 11.45-5 22.36-11.19 32.9-17.15l2.07-1.17c3.87-2.19 8.69-5.76 9.68-10.37.88-4.13.88-4.65.46-9.81zm-112.18 69.52a9.4 9.4 0 0 1 -6 3.37 103.43 103.43 0 0 1 -18.95 1.45c-1.34 0-10.27.17-13.95.1s-7-.11-8.52 0c-5.08.29-10.16-1-16-4.08-.42-.22-.88-.45-1.34-.67a15.56 15.56 0 0 1 -2.86-1.62l-.21-.2-.24-.16c-2.58-1.67-7.63-6.86-11.26-11q-1.84-2.35-3.35-4.69c-4.81-7.19-8.58-15.69-11-21.47a26.22 26.22 0 0 1 -1.5-15.36c1.38-7 3.41-14 5.38-20.83.85-3 1.73-6 2.56-9.05l1.86-6.86c2.07-7.59 4.2-15.43 6.36-23.15.43-1.56.85-3.14 1.27-4.71 2.39-9 4.65-17.55 10.49-24.66 2.8-3.38 5.33-4.89 8.45-5q3.34-.17 6.67-.36c10.05-.57 20.45-1.16 30.54.58.91.15 1.83.29 2.74.42 3.7.54 6.89 1 9.8 3 2.39 1.6 4 4.24 5.66 7l.94 1.54c.48.92 2.24 6.46 4.55 15.53q1.74 6.9 3.43 13.82c2 8.26 4.14 16.81 6.39 25.18 1 3.61 2.06 7.22 3.11 10.71 2.64 8.72 5.14 17 6 25.82.67 6.63-2.67 15.79-6 22.18l-2.5 4.35a99.85 99.85 0 0 1 -12.52 18.82zm103.94-61.35c-.17.79-1.89 2.85-5.79 5.06l-2.06 1.16c-10.38 5.87-21.11 11.93-32.18 16.79-7.93 3.48-17.85 7.13-26.61 10.35-5.94 2.19-11.65 4.28-16.21 6.14 2.32-4.72 6.84-15.22 5.95-24.11-.95-9.44-3.65-18.35-6.25-27-1.05-3.44-2.12-7-3.06-10.52-2.24-8.31-4.33-16.83-6.36-25.07q-1.71-6.93-3.44-13.85c-.36-1.41-1.59-6.18-2.83-10.37a29.45 29.45 0 0 1 3.13-4.31c2.66 4.6 5.39 4.64 10 4a6.45 6.45 0 0 0 5.93-6.79c.07-3.49-.47-7-3.63-9-6.36-4-13.3-.57-14 7.12-.07.91-1.5 2.72-2.85 4.32a16.25 16.25 0 0 0 -.82-2l-.09-.12c-.32-.51-.64-1-1-1.57-1.85-3.08-4-6.56-7.44-8.91-4.05-2.73-8.24-3.34-12.29-3.93-.86-.13-1.73-.26-2.59-.41-10.76-1.85-21.51-1.24-31.9-.65q-3.3.2-6.6.35c-6.37.28-10.35 4.24-12.81 7.2a42.91 42.91 0 0 0 -4.53 6.79c-2.55-1.82-4.22-2.24-4.22-4.54 0-7.23-16.39-9.65-17.94 1.34-.39 3.06 0 6.69 2.91 8.49 3.1 1.86 6.33 1.65 9.71.61 2.41-.76 5.44-3.94 5.08-5 .23.71 1.69 1.54 2.91 2.25a105 105 0 0 0 -5.58 17c-.41 1.55-.82 3.1-1.25 4.64-2.16 7.73-4.3 15.59-6.37 23.19l-1.86 6.85c-.81 3-1.69 6-2.54 9-2 6.93-4.07 14.09-5.5 21.34a32.27 32.27 0 0 0 1.87 18.86 161.43 161.43 0 0 0 7.62 16c-12.91-3.45-36-10.77-52.48-16.76-9-3.29-27.66-12.26-42.26-21-5.18-3.1-7.11-6.83-7.11-13.32a112.68 112.68 0 0 1 2.43-20.67c.21-1.09.72-3.81 1.42-7.57 2.72-14.5 9.92-53 11.33-57.49l.12-.47c.75-4 1.66-8.09 2.54-12 .71-3.18 1.44-6.47 2.09-9.74.93-4.52 2.16-9.13 3.35-13.59.55-2 1.09-4.09 1.61-6.13l.21-.81a2.54 2.54 0 0 0 -.65-2.4l-.58-.59c-1.54-1.56-3.18-3-4.77-4.44-3.1-2.76-6-5.37-8.07-8.5-3.18-4.94-3.39-7.65-.83-11.19 4.34-6 8.21-10.78 15.1-12.19 3.44-.71 4.55-.14 5.87 1.5 3.84 4.71 7.88 7.83 15.26 7.71 6.51-.11 13.22.1 19.72.29l4.28.13c5 .13 10.1.28 15.15.42 9 .27 18.25.54 27.38.69 5.33.09 16.76.2 30 .32 23.06.21 51.74.48 61.13.81h.36c11.21-.39 21 .46 32.4 1.44l4.67.4a94 94 0 0 1 15.92 3.09l4.56 1.7c1.49.73 1.79.6 2.69-.13l.78-.64a38.31 38.31 0 0 0 4.46-4.46 32.11 32.11 0 0 1 3.43-3.46c2.4-1.91 4.44-2.28 7.07-1.25 4.06 1.54 6.86 3.38 8.8 5.79 1.68 2.08 1.81 5 1.81 8.35 0 5-1.53 8.95-4.57 12-1.15 1.15-2.25 2.33-3.32 3.48a68.25 68.25 0 0 1 -5.59 5.57 6.75 6.75 0 0 0 -2.07 7.67c4.81 12.8 14.82 51.61 21.87 116.18.09 1.18.18 2.18.25 3 .39 4.46.39 4.46-.27 7.56z"/></g></svg>